<svg xmlns="http://www.w3.org/2000/svg" width="24" height="24" viewBox="0 0 24 24"><g fill="none" fill-rule="evenodd"><rect width="24" height="24"></rect><g fill-rule="nonzero" transform="translate(2 2)"><path fill="#CC0001" d="M0,10.0019493 C0,4.47910182 4.47593818,0.00194931774 10,0.00194931774 L10,0.00194931774 C15.5228475,0.00194931774 20,4.4778875 20,10.0019493 L20,10.0019493 C20,15.5247968 15.5240618,20.0019493 10,20.0019493 L10,20.0019493 C4.4771525,20.0019493 0,15.5260111 0,10.0019493 L0,10.0019493 Z"></path><path fill="#FFF" d="M4.7259736,18.5 L15.2740977,18.5 C13.7958656,19.4192881 12.0600553,19.9636095 10.1994901,20 L9.80052597,20 C7.94016612,19.9636107 6.20431386,19.419323 4.7259736,18.5 Z M1.64538399,15.5 L18.3545744,15.5 C17.999416,16.0386489 17.5935599,16.5409135 17.1437924,17 L2.85620471,17 C2.40642919,16.5409233 2.00055771,16.0386611 1.64538399,15.5 Z M0.314438043,12.5 L19.6855328,12.5 C19.5525088,13.0173832 19.3791281,13.5185687 19.1689433,14 L0.831010161,14 C0.620833278,13.5185805 0.44745745,13.0173966 0.314438043,12.5 Z M0.0123753987,9.5 L19.9876265,9.5 C19.9958431,9.66627865 20,9.83362741 20,10.0019493 C20,10.338782 19.9833511,10.671725 19.9508308,11 L0.0491624877,11 C0.0166468253,10.6717317 0,10.338789 0,10.0019493 C0,9.83362709 0.00415758303,9.66627618 0.0123757087,9.49999373 Z M0.630195489,6.5 L19.3698471,6.5 C19.5505455,6.98336534 19.6949168,7.48447164 19.7996384,8 L0.200382951,8 C0.305109961,7.4844854 0.449487488,6.98337755 0.630195489,6.5 Z M2.40167839,3.5 L17.5983415,3.5 C17.9965766,3.96495769 18.3528709,4.46690961 18.6613624,5 L1.33868413,5 C1.64716523,4.46692184 2.00344868,3.96496773 2.40167839,3.5 Z M6.87430073,0.5 L13.1255831,0.5 C14.1698565,0.84323611 15.1381898,1.35380033 15.9988569,2 L4.00109934,2 C4.8617089,1.35381757 5.83000457,0.843244471 6.87430073,0.5 Z"></path><path fill="#010066" d="M12,0.201936467 L12,11.0019493 L0.0493557637,11.0019493 C0.0167127936,10.6730497 0,10.3394558 0,10.0019493 C0,4.47910182 4.47593818,0.00194931774 10,0.00194931774 C10.6849317,0.00194931774 11.3537801,0.0707911597 12,0.201936467 Z"></path><path fill="#FC0" d="M2,5.49996233 C2,3.56807173 3.58056636,2.00003767 5.52788769,2 C6.2581805,2 6.93692324,2.22065725 7.5,2.59815182 C7.16178302,2.47382726 6.7962392,2.40601386 6.41464749,2.40601386 C4.68787118,2.40601386 3.28644324,3.79633915 3.28644324,5.5094562 C3.28644324,7.22253558 4.68787118,8.61286086 6.41464749,8.61286086 C6.7627476,8.61308752 7.10844708,8.55550982 7.43751161,8.44249855 C6.8869628,8.79505285 6.23149709,9 5.52788769,9 C3.58056636,9 2,7.43189059 2,5.49996233 Z M10.5016663,7.06174921 L9.23377638,6.40021055 L9.60868919,7.75409465 L8.7606306,6.62157379 L8.49606035,8 L8.23584954,6.62079878 L7.38423881,7.75073626 L7.7633819,6.39801467 L6.49339301,7.05571056 L7.43684285,5.99736495 L6,6.05255238 L7.32084916,5.49822393 L6.00177607,4.93992353 L7.43842517,4.99943812 L6.49833372,3.93825079 L7.76625591,4.59978945 L7.3913431,3.24590535 L8.23940169,4.37842621 L8.50397194,3 L8.76418275,4.37920122 L9.61579348,3.24926374 L9.2366181,4.60198533 L10.506607,3.94428944 L9.56318944,5.00263505 L11,4.94744762 L9.67918314,5.50177607 L10.9982562,6.06004418 L9.56160712,6.00056188 L10.5016663,7.06174921 Z"></path></g><circle cx="12" cy="12" r="10" stroke="#ffffff" stroke-width="2"></circle></g></svg>